<svg width="583" height="690" viewBox="0 0 583 690" fill="none" xmlns="http://www.w3.org/2000/svg">
<g filter="url(#filter0_d)">
<mask id="path-1-inside-1" fill="white">
<path d="M35.9049 692.701C14.6439 613.928 6.22982 526.779 11.5541 440.489C16.8784 354.198 35.7428 271.979 66.1486 202.544L68.2124 205.191C38.0856 273.989 19.3943 355.454 14.1189 440.952C8.84342 526.451 17.1803 612.8 38.2462 690.85L35.9049 692.701Z"/>
</mask>
<path d="M35.9049 692.701C14.6439 613.928 6.22982 526.779 11.5541 440.489C16.8784 354.198 35.7428 271.979 66.1486 202.544L68.2124 205.191C38.0856 273.989 19.3943 355.454 14.1189 440.952C8.84342 526.451 17.1803 612.8 38.2462 690.85L35.9049 692.701Z" stroke="#2F3640" stroke-width="5.45742" mask="url(#path-1-inside-1)"/>
</g>
<g filter="url(#filter1_d)">
<mask id="path-2-inside-2" fill="white">
<path d="M94.554 147.101C141.538 68.4707 203.136 20.502 268.641 11.5323C334.146 2.56256 399.417 33.1589 453.109 98.0032C506.8 162.847 545.518 257.84 562.531 366.469C579.545 475.098 573.779 590.496 546.235 692.605L543.894 690.755C571.185 589.583 576.898 475.244 560.04 367.612C543.183 259.979 504.821 165.859 451.622 101.609C398.423 37.3601 333.751 7.04453 268.847 15.932C203.943 24.8194 142.91 72.3479 96.3571 150.256L94.554 147.101Z"/>
</mask>
<path d="M94.554 147.101C141.538 68.4707 203.136 20.502 268.641 11.5323C334.146 2.56256 399.417 33.1589 453.109 98.0032C506.8 162.847 545.518 257.84 562.531 366.469C579.545 475.098 573.779 590.496 546.235 692.605L543.894 690.755C571.185 589.583 576.898 475.244 560.04 367.612C543.183 259.979 504.821 165.859 451.622 101.609C398.423 37.3601 333.751 7.04453 268.847 15.932C203.943 24.8194 142.91 72.3479 96.3571 150.256L94.554 147.101Z" stroke="#2F3640" stroke-width="5.45742" mask="url(#path-2-inside-2)"/>
</g>
<g filter="url(#filter2_d)">
<path d="M65.4603 173.75C65.4603 183.235 73.0156 190.886 82.2873 190.886C91.5591 190.886 99.1144 183.235 99.1144 173.75C99.1144 164.265 91.5591 156.614 82.2873 156.614C73.0156 156.614 65.4603 164.265 65.4603 173.75Z" stroke="#2F3640" stroke-width="2.72871"/>
</g>
<defs>
<filter id="filter0_d" x="0" y="192.544" width="78.2124" height="510.157" filterUnits="userSpaceOnUse" color-interpolation-filters="sRGB">
<feFlood flood-opacity="0" result="BackgroundImageFix"/>
<feColorMatrix in="SourceAlpha" type="matrix" values="0 0 0 0 0 0 0 0 0 0 0 0 0 0 0 0 0 0 127 0"/>
<feOffset/>
<feGaussianBlur stdDeviation="5"/>
<feColorMatrix type="matrix" values="0 0 0 0 0.498039 0 0 0 0 0.560784 0 0 0 0 0.65098 0 0 0 1 0"/>
<feBlend mode="normal" in2="BackgroundImageFix" result="effect1_dropShadow"/>
<feBlend mode="normal" in="SourceGraphic" in2="effect1_dropShadow" result="shape"/>
</filter>
<filter id="filter1_d" x="84.554" y="-0.000671387" width="497.56" height="702.605" filterUnits="userSpaceOnUse" color-interpolation-filters="sRGB">
<feFlood flood-opacity="0" result="BackgroundImageFix"/>
<feColorMatrix in="SourceAlpha" type="matrix" values="0 0 0 0 0 0 0 0 0 0 0 0 0 0 0 0 0 0 127 0"/>
<feOffset/>
<feGaussianBlur stdDeviation="5"/>
<feColorMatrix type="matrix" values="0 0 0 0 0.498039 0 0 0 0 0.560784 0 0 0 0 0.65098 0 0 0 1 0"/>
<feBlend mode="normal" in2="BackgroundImageFix" result="effect1_dropShadow"/>
<feBlend mode="normal" in="SourceGraphic" in2="effect1_dropShadow" result="shape"/>
</filter>
<filter id="filter2_d" x="54.0959" y="145.25" width="56.3828" height="57" filterUnits="userSpaceOnUse" color-interpolation-filters="sRGB">
<feFlood flood-opacity="0" result="BackgroundImageFix"/>
<feColorMatrix in="SourceAlpha" type="matrix" values="0 0 0 0 0 0 0 0 0 0 0 0 0 0 0 0 0 0 127 0"/>
<feOffset/>
<feGaussianBlur stdDeviation="5"/>
<feColorMatrix type="matrix" values="0 0 0 0 0.498039 0 0 0 0 0.560784 0 0 0 0 0.65098 0 0 0 1 0"/>
<feBlend mode="normal" in2="BackgroundImageFix" result="effect1_dropShadow"/>
<feBlend mode="normal" in="SourceGraphic" in2="effect1_dropShadow" result="shape"/>
</filter>
</defs>
</svg>
