<svg width="48" height="48" viewBox="0 0 48 48" fill="none" xmlns="http://www.w3.org/2000/svg">
<path d="M0 19.5H48V30H0V19.5Z" fill="#2B3990"/>
<path d="M40.5 8.25H7.5C2.52975 8.25 0 11.9438 0 16.5V19.5H48V16.5C48 11.9438 45.4702 8.25 40.5 8.25Z" fill="#F9CB38"/>
<path d="M0 33C0 37.5562 2.52975 41.25 7.5 41.25H40.5C45.4702 41.25 48 37.5562 48 33V30H0V33Z" fill="#E51C23"/>
<path d="M21.7875 19.7175L22.2863 20.727L23.4 20.8905L22.5975 21.6787L22.7858 22.791L21.7875 22.266L20.7863 22.791L20.9775 21.6787L20.169 20.8905L21.2865 20.727L21.7875 19.7175Z" fill="white"/>
<path d="M26.1675 19.7175L26.667 20.727L27.7875 20.8905L26.976 21.6787L27.165 22.791L26.1675 22.266L25.167 22.791L25.3583 21.6787L24.549 20.8905L25.665 20.727L26.1675 19.7175Z" fill="white"/>
<path d="M17.2072 20.5282L17.706 21.5407L18.825 21.7027L18.015 22.4924L18.2062 23.6039L17.2072 23.0774L16.2075 23.6039L16.3987 22.4924L15.5895 21.7027L16.7055 21.5407L17.2072 20.5282Z" fill="white"/>
<path d="M30.8925 20.5282L31.389 21.5407L32.505 21.7027L31.695 22.4924L31.8885 23.6039L30.8925 23.0774L29.8898 23.6039L30.0825 22.4924L29.2725 21.7027L30.3885 21.5407L30.8925 20.5282Z" fill="white"/>
<path d="M34.9395 22.8593L35.4375 23.8703L36.555 24.0375L35.7488 24.825L35.937 25.9328L34.9395 25.4078L33.9375 25.9328L34.1303 24.825L33.3225 24.0375L34.4378 23.8703L34.9395 22.8593Z" fill="white"/>
<path d="M13.1392 22.8465L13.6425 23.8582L14.757 24.0225L13.9485 24.81L14.1397 25.9222L13.1392 25.3972L12.1395 25.9222L12.33 24.81L11.5215 24.0225L12.639 23.8582L13.1392 22.8465Z" fill="white"/>
<path d="M10.1182 26.445L10.6177 27.453L11.7352 27.6173L10.926 28.4055L11.118 29.52L10.1182 28.992L9.11849 29.52L9.30899 28.4055L8.50049 27.6173L9.61649 27.453L10.1182 26.445Z" fill="white"/>
<path d="M37.9515 26.445L38.4525 27.4545L39.5685 27.6173L38.76 28.4055L38.9505 29.52L37.9515 28.992L36.9525 29.52L37.14 28.4055L36.33 27.6173L37.4513 27.4545L37.9515 26.445Z" fill="white"/>
</svg>
