<svg width="32" height="32" viewBox="0 0 32 32" fill="none" xmlns="http://www.w3.org/2000/svg">
<path fill-rule="evenodd" clip-rule="evenodd" d="M16 1.99999C12.6763 2.00044 9.46111 3.18337 6.92968 5.33719C4.39824 7.491 2.71564 10.4752 2.18288 13.7559C1.65012 17.0367 2.30195 20.3999 4.02177 23.2441C5.74158 26.0883 8.41719 28.2278 11.57 29.28C12.27 29.41 12.57 28.98 12.57 28.61V26.23C8.67998 27.07 7.85998 24.35 7.85998 24.35C7.58643 23.4928 7.0107 22.7643 6.23998 22.3C4.96998 21.44 6.33998 21.45 6.33998 21.45C6.78358 21.5127 7.207 21.6759 7.57789 21.9272C7.94878 22.1785 8.25733 22.5112 8.47998 22.9C8.86732 23.5947 9.51471 24.1072 10.2798 24.3247C11.0449 24.5422 11.8651 24.447 12.56 24.06C12.6164 23.3505 12.9292 22.6857 13.44 22.19C10.34 21.83 7.06998 20.63 7.06998 15.27C7.04731 13.8779 7.5632 12.5308 8.50998 11.51C8.08144 10.3042 8.13154 8.97997 8.64998 7.80999C8.64998 7.80999 9.81998 7.42999 12.5 9.23999C14.7915 8.61494 17.2085 8.61494 19.5 9.23999C22.17 7.42999 23.34 7.80999 23.34 7.80999C23.8584 8.97997 23.9085 10.3042 23.48 11.51C24.4268 12.5308 24.9426 13.8779 24.92 15.27C24.92 20.65 21.65 21.83 18.53 22.18C18.8642 22.5188 19.1219 22.9252 19.2858 23.372C19.4497 23.8188 19.5159 24.2955 19.48 24.77V28.61C19.48 29.07 19.73 29.42 20.48 29.28C23.6369 28.2265 26.3153 26.0829 28.0348 23.2334C29.7544 20.384 30.4026 17.0152 29.8633 13.7312C29.324 10.4471 27.6324 7.46257 25.0918 5.31276C22.5513 3.16295 19.328 1.98849 16 1.99999Z" fill="#2F3640"/>
</svg>
