<svg width="58" height="59" viewBox="0 0 58 59" fill="none" xmlns="http://www.w3.org/2000/svg">
<g filter="url(#filter0_d)">
<mask id="path-1-inside-1" fill="white">
<path d="M43.8733 43.8733C39.203 48.5435 32.9141 51.2365 26.3113 51.3935C19.7085 51.5505 13.2987 49.1594 8.41177 44.7165L9.68817 43.3125C14.2143 47.4275 20.1509 49.642 26.2662 49.4966C32.3815 49.3511 38.2062 46.857 42.5316 42.5316L43.8733 43.8733Z"/>
</mask>
<path d="M43.8733 43.8733C39.203 48.5435 32.9141 51.2365 26.3113 51.3935C19.7085 51.5505 13.2987 49.1594 8.41177 44.7165L9.68817 43.3125C14.2143 47.4275 20.1509 49.642 26.2662 49.4966C32.3815 49.3511 38.2062 46.857 42.5316 42.5316L43.8733 43.8733Z" fill="white"/>
<path d="M43.8733 43.8733C39.203 48.5435 32.9141 51.2365 26.3113 51.3935C19.7085 51.5505 13.2987 49.1594 8.41177 44.7165L9.68817 43.3125C14.2143 47.4275 20.1509 49.642 26.2662 49.4966C32.3815 49.3511 38.2062 46.857 42.5316 42.5316L43.8733 43.8733Z" stroke="#2F3640" stroke-width="3.79322" mask="url(#path-1-inside-1)"/>
</g>
<mask id="path-2-inside-2" fill="white">
<path d="M0.499115 20.6599C1.83592 13.9762 5.77309 8.09717 11.4445 4.31628L12.4982 5.89689C7.24601 9.39831 3.59986 14.8428 2.36187 21.0325L0.499115 20.6599Z"/>
</mask>
<path d="M0.499115 20.6599C1.83592 13.9762 5.77309 8.09717 11.4445 4.31628L12.4982 5.89689C7.24601 9.39831 3.59986 14.8428 2.36187 21.0325L0.499115 20.6599Z" fill="white" stroke="#2F3640" stroke-width="3.79322" mask="url(#path-2-inside-2)"/>
<mask id="path-3-inside-3" fill="white">
<path d="M49.9577 17.2097C50.9153 19.9456 51.4032 22.8237 51.4007 25.7224L49.503 25.7207C49.5053 23.0361 49.0534 20.3705 48.1665 17.8366L49.9577 17.2097Z"/>
</mask>
<path d="M49.9577 17.2097C50.9153 19.9456 51.4032 22.8237 51.4007 25.7224L49.503 25.7207C49.5053 23.0361 49.0534 20.3705 48.1665 17.8366L49.9577 17.2097Z" fill="white" stroke="#2F3640" stroke-width="3.79322" mask="url(#path-3-inside-3)"/>
<path d="M13.6669 25.2915L7.93249 41.3478H5.90859L0.174196 25.2915H2.28805L5.90859 35.5909C6.14846 36.2505 6.35085 36.8727 6.51576 37.4574C6.68067 38.0271 6.8156 38.5743 6.92054 39.099C7.02548 38.5743 7.16041 38.0196 7.32532 37.4349C7.49023 36.8502 7.69262 36.2206 7.93249 35.5459L11.5305 25.2915H13.6669ZM18.3805 24.7743C18.6804 24.7743 18.9427 24.8792 19.1676 25.0891C19.4075 25.284 19.5274 25.5988 19.5274 26.0336C19.5274 26.4533 19.4075 26.7682 19.1676 26.9781C18.9427 27.188 18.6804 27.2929 18.3805 27.2929C18.0507 27.2929 17.7734 27.188 17.5485 26.9781C17.3236 26.7682 17.2112 26.4533 17.2112 26.0336C17.2112 25.5988 17.3236 25.284 17.5485 25.0891C17.7734 24.8792 18.0507 24.7743 18.3805 24.7743ZM19.3475 29.2943V41.3478H17.3686V29.2943H19.3475ZM32.2063 32.8699H37.7608V40.7406C36.8913 41.0255 36.0143 41.2353 35.1297 41.3703C34.2452 41.5052 33.2408 41.5727 32.1164 41.5727C30.4523 41.5727 29.0505 41.2428 27.9112 40.5832C26.7718 39.9086 25.9022 38.9566 25.3026 37.7272C24.7179 36.4829 24.4255 35.0137 24.4255 33.3196C24.4255 31.6405 24.7554 30.1863 25.415 28.957C26.0747 27.7277 27.0191 26.7757 28.2485 26.101C29.4928 25.4114 30.992 25.0666 32.746 25.0666C33.6456 25.0666 34.4926 25.1491 35.2872 25.314C36.0967 25.4789 36.8463 25.7113 37.5359 26.0111L36.7714 27.7651C36.2017 27.5103 35.557 27.2929 34.8374 27.113C34.1328 26.9331 33.3982 26.8431 32.6336 26.8431C30.7146 26.8431 29.2155 27.4203 28.136 28.5747C27.0716 29.7291 26.5394 31.3107 26.5394 33.3196C26.5394 34.5939 26.7418 35.7258 27.1466 36.7153C27.5663 37.6898 28.2185 38.4543 29.103 39.009C29.9875 39.5488 31.1494 39.8186 32.5886 39.8186C33.2932 39.8186 33.8929 39.7811 34.3876 39.7062C34.8824 39.6312 35.3321 39.5413 35.7369 39.4363V34.6689H32.2063V32.8699ZM53.6044 35.2986C53.6044 37.2925 53.0946 38.8366 52.0752 39.931C51.0707 41.0255 49.7065 41.5727 47.9824 41.5727C46.918 41.5727 45.966 41.3328 45.1265 40.853C44.3019 40.3583 43.6498 39.6462 43.17 38.7167C42.6903 37.7722 42.4504 36.6328 42.4504 35.2986C42.4504 33.3046 42.9526 31.768 43.9571 30.6886C44.9615 29.6091 46.3258 29.0694 48.0499 29.0694C49.1443 29.0694 50.1038 29.3168 50.9283 29.8115C51.7679 30.2913 52.42 30.9959 52.8848 31.9254C53.3645 32.8399 53.6044 33.9643 53.6044 35.2986ZM44.4968 35.2986C44.4968 36.7228 44.7742 37.8547 45.3288 38.6942C45.8985 39.5188 46.7981 39.931 48.0274 39.931C49.2417 39.931 50.1337 39.5188 50.7034 38.6942C51.2731 37.8547 51.558 36.7228 51.558 35.2986C51.558 33.8743 51.2731 32.7574 50.7034 31.9479C50.1337 31.1383 49.2342 30.7335 48.0049 30.7335C46.7756 30.7335 45.8835 31.1383 45.3288 31.9479C44.7742 32.7574 44.4968 33.8743 44.4968 35.2986Z" fill="#2F3640"/>
<defs>
<filter id="filter0_d" x="3.41177" y="39.5316" width="45.4615" height="18.8692" filterUnits="userSpaceOnUse" color-interpolation-filters="sRGB">
<feFlood flood-opacity="0" result="BackgroundImageFix"/>
<feColorMatrix in="SourceAlpha" type="matrix" values="0 0 0 0 0 0 0 0 0 0 0 0 0 0 0 0 0 0 127 0"/>
<feOffset dy="2"/>
<feGaussianBlur stdDeviation="2.5"/>
<feColorMatrix type="matrix" values="0 0 0 0 0 0 0 0 0 0 0 0 0 0 0 0 0 0 0.6 0"/>
<feBlend mode="normal" in2="BackgroundImageFix" result="effect1_dropShadow"/>
<feBlend mode="normal" in="SourceGraphic" in2="effect1_dropShadow" result="shape"/>
</filter>
</defs>
</svg>
