<svg width="40" height="40" viewBox="0 0 40 40" fill="none" xmlns="http://www.w3.org/2000/svg">
<path d="M36.6666 14.3467V27.9167C36.6667 29.3002 36.1374 30.6314 35.1872 31.637C34.237 32.6427 32.938 33.2467 31.5566 33.325L31.25 33.3333H8.74998C7.36642 33.3334 6.03527 32.8041 5.02959 31.8539C4.02392 30.9037 3.41998 29.6047 3.34165 28.2233L3.33331 27.9167V14.3467L19.42 22.7733C19.5989 22.8671 19.798 22.916 20 22.916C20.202 22.916 20.401 22.8671 20.58 22.7733L36.6666 14.3467ZM8.74998 6.66666H31.25C32.5926 6.66649 33.8875 7.16498 34.8834 8.06544C35.8793 8.96589 36.5053 10.2041 36.64 11.54L20 20.2567L3.35998 11.54C3.48919 10.2572 4.07173 9.06252 5.0029 8.17076C5.93406 7.279 7.15278 6.74863 8.43998 6.67499L8.74998 6.66666H31.25H8.74998Z" fill="white"/>
</svg>
