<svg width="34" height="34" viewBox="0 0 34 34" fill="none" xmlns="http://www.w3.org/2000/svg">
<path d="M12.665 26.4987C14.4597 26.51 16.2388 26.1649 17.8991 25.4833C19.5594 24.8017 21.0678 23.7972 22.3369 22.5281C23.6059 21.259 24.6104 19.7506 25.292 18.0903C25.9736 16.43 26.3188 14.651 26.3075 12.8562V12.2294C27.2378 11.5478 28.0431 10.7102 28.6875 9.75374C27.8115 10.1369 26.8846 10.391 25.9356 10.5081C26.9417 9.90864 27.6966 8.96502 28.0606 7.85187C27.123 8.4144 26.0948 8.80986 25.0219 9.02062C24.2993 8.2507 23.3431 7.74037 22.3013 7.56859C21.2595 7.39682 20.1901 7.57317 19.2586 8.07038C18.3271 8.56758 17.5854 9.35791 17.1483 10.3191C16.7112 11.2802 16.6031 12.3587 16.8406 13.3875C14.9345 13.2939 13.0695 12.8 11.367 11.9377C9.6645 11.0755 8.1627 9.86433 6.95938 8.38312C6.35261 9.43624 6.16869 10.6806 6.44487 11.8642C6.72105 13.0478 7.43668 14.0823 8.44687 14.7581C7.70165 14.7294 6.97367 14.5255 6.32187 14.1631V14.2162C6.31525 15.3168 6.68602 16.3864 7.37237 17.2468C8.05873 18.1071 9.01921 18.7063 10.0938 18.9444C9.40062 19.1308 8.67456 19.1598 7.96875 19.0294C8.27983 19.968 8.87366 20.7873 9.6688 21.3751C10.4639 21.9629 11.4214 22.2904 12.41 22.3125C10.7198 23.673 8.6191 24.422 6.44938 24.4375C6.06895 24.4265 5.68942 24.3946 5.3125 24.3419C7.50864 25.7411 10.061 26.4788 12.665 26.4669" fill="#2F3640"/>
</svg>
